<svg width="441" height="141" viewBox="0 0 441 141" fill="none" xmlns="http://www.w3.org/2000/svg">
<path d="M9.61 136.051C7.06127 136.051 4.61693 135.038 2.8147 133.236C1.01248 131.434 0 128.99 0 126.441L0 15.0209C-1.37753e-06 12.4713 1.01216 10.0259 2.8141 8.22208C4.61603 6.41826 7.06035 5.40356 9.61 5.40091C12.1596 5.40356 14.604 6.41826 16.4059 8.22208C18.2078 10.0259 19.22 12.4713 19.22 15.0209V56.7409H95.93V15.0209C95.93 12.4713 96.9422 10.0259 98.7441 8.22208C100.546 6.41826 102.99 5.40356 105.54 5.40091C108.091 5.40091 110.538 6.41444 112.342 8.21854C114.146 10.0226 115.16 12.4695 115.16 15.0209V126.441C115.157 128.991 114.143 131.435 112.339 133.237C110.535 135.039 108.09 136.051 105.54 136.051C102.991 136.051 100.547 135.038 98.7447 133.236C96.9425 131.434 95.93 128.99 95.93 126.441V75.9509H19.22V126.441C19.22 128.99 18.2075 131.434 16.4053 133.236C14.6031 135.038 12.1587 136.051 9.61 136.051Z" fill="#fff"/>
<path d="M252.89 112.641C246.216 121.47 237.538 128.585 227.572 133.398C217.606 138.212 206.638 140.585 195.573 140.324C184.509 140.062 173.665 137.172 163.938 131.893C154.211 126.613 145.879 119.096 139.63 109.961C138.607 108.484 138.007 106.756 137.895 104.963C137.784 103.17 138.165 101.381 138.997 99.7885C139.829 98.1963 141.081 96.8621 142.616 95.9301C144.152 94.9981 145.914 94.5039 147.71 94.5009C149.327 94.5106 150.917 94.9146 152.342 95.6779C153.768 96.4411 154.986 97.5406 155.89 98.8809C157.648 101.428 159.633 103.811 161.82 106.001C166.467 110.675 171.992 114.385 178.077 116.916C184.163 119.447 190.689 120.751 197.28 120.751C203.871 120.751 210.397 119.447 216.483 116.916C222.568 114.385 228.093 110.675 232.74 106.001C234.34 104.291 235.88 102.531 237.29 100.701C238.255 99.4232 239.525 98.4078 240.984 97.7475C242.442 97.0872 244.043 96.803 245.64 96.9209H245.82C247.576 97.0602 249.263 97.6689 250.704 98.6835C252.144 99.6981 253.285 101.081 254.008 102.688C254.731 104.295 255.008 106.067 254.812 107.818C254.615 109.569 253.951 111.234 252.89 112.641Z" fill="#fff"/>
<path d="M180.63 2.65091C157.85 7.86091 134.63 31.1209 129.38 53.9009C128.206 59.0036 127.573 64.2156 127.49 69.4509C127.471 70.4191 127.646 71.3813 128.003 72.2814C128.361 73.1814 128.894 74.0012 129.572 74.6929C130.249 75.3846 131.058 75.9343 131.951 76.31C132.843 76.6857 133.802 76.8798 134.77 76.8809L164.09 77.0709H260.54C262.271 77.0657 263.93 76.3763 265.155 75.1531C266.38 73.9299 267.072 72.2721 267.08 70.5409C267.08 26.4809 226.55 -7.86909 180.63 2.65091ZM148.75 57.8509C151.041 49.2489 155.548 41.398 161.82 35.0809C166.467 30.4065 171.992 26.697 178.077 24.1657C184.163 21.6344 190.689 20.3313 197.28 20.3313C203.871 20.3313 210.397 21.6344 216.483 24.1657C222.568 26.697 228.093 30.4065 232.74 35.0809C239.005 41.4014 243.508 49.2514 245.8 57.8509H148.75Z" fill="#fff"/>
<path d="M344 126.911C343.997 129.336 343.032 131.661 341.316 133.374C339.601 135.088 337.275 136.051 334.85 136.051H289C286.613 136.051 284.324 135.103 282.636 133.415C280.948 131.727 280 129.438 280 127.051V15.2009C280 12.6018 281.033 10.1091 282.87 8.27126C284.708 6.43341 287.201 5.40091 289.8 5.40091C292.399 5.40091 294.892 6.43341 296.73 8.27126C298.568 10.1091 299.6 12.6018 299.6 15.2009V117.741H334.87C336.072 117.744 337.261 117.983 338.37 118.445C339.479 118.907 340.486 119.583 341.334 120.435C342.182 121.287 342.854 122.297 343.311 123.408C343.769 124.519 344.003 125.709 344 126.911Z" fill="#fff"/>
<path d="M426.86 19.4009C431.326 23.8152 434.865 29.0773 437.269 34.8782C439.673 40.679 440.894 46.9017 440.86 53.1809C440.821 65.7918 435.787 77.8737 426.86 86.7809C418.08 95.9209 405.95 100.591 393.07 100.591H376.65V126.531C376.65 128.956 375.687 131.282 373.974 132.997C372.26 134.713 369.935 135.678 367.51 135.681H366.2C363.773 135.681 361.446 134.717 359.73 133.001C358.014 131.285 357.05 128.958 357.05 126.531V14.0809C357.05 11.7788 357.965 9.57104 359.592 7.94322C361.22 6.31541 363.428 5.40091 365.73 5.40091H393.07C399.351 5.36513 405.576 6.58519 411.379 8.9894C417.181 11.3936 422.445 14.9335 426.86 19.4009ZM421.04 48.4009C418.74 34.6409 406.43 24.7809 392.47 24.7809H376.65V80.9909H393.07C410.12 80.9909 424 66.0809 421 48.4309L421.04 48.4009Z" fill="#fff"/>
</svg>
