<svg width="35" height="30" viewBox="0 0 35 30" fill="none" xmlns="http://www.w3.org/2000/svg">
<path d="M32.0173 0.257511C32.0173 0.257511 35.2547 -1.00497 34.9839 2.06082C34.8947 3.3233 34.0856 7.7424 33.4556 12.5215L31.2973 26.6796C31.2973 26.6796 31.1173 28.7538 29.4982 29.1146C27.8798 29.4746 25.4515 27.8521 25.0016 27.4913C24.6416 27.2205 18.2567 23.1622 16.0084 21.1789C15.3784 20.6372 14.6584 19.5556 16.0983 18.2931L25.5407 9.27488C26.6199 8.19323 27.699 5.66827 23.2024 8.73406L10.6109 17.3006C10.6109 17.3006 9.17178 18.2031 6.47432 17.3914L0.627736 15.5873C0.627736 15.5873 -1.53057 14.2348 2.15688 12.8823C11.1509 8.64406 22.2133 4.31579 32.0156 0.257511H32.0173Z" fill="white"/>
</svg>
