<svg width="139" height="140" viewBox="0 0 139 140" fill="none" xmlns="http://www.w3.org/2000/svg">

<path fill-rule="evenodd" clip-rule="evenodd" d="M69.4997 0C67.6667 0 65.8579 0.426877 64.2441 1.24745L64.2401 1.24952L5.57176 31.306C4.07643 32.0744 2.79095 33.1642 1.83132 34.4943L1.826 34.4991L1.73002 34.6366L1.70176 34.6767C1.65774 34.739 1.58855 34.8369 1.52561 34.9339L1.51712 34.946C1.50403 34.965 1.48618 34.9915 1.46624 35.024C1.44519 35.0581 1.42852 35.0878 1.41655 35.1099L1.4068 35.128C0.489966 36.6218 0.0014168 38.3161 0 40.0485V99.945C0.00154948 101.748 0.529475 103.508 1.51616 105.045C2.50189 106.58 3.90642 107.832 5.57236 108.687L5.5734 108.688L64.2401 138.743L64.247 138.747C65.6583 139.461 67.2206 139.872 68.8187 139.957C69.0281 139.982 69.2387 139.997 69.4498 140L69.4606 140H69.5073L69.5171 140C69.7463 139.998 69.9752 139.984 70.2026 139.956C71.7931 139.868 73.3477 139.457 74.7524 138.747L74.7593 138.743L133.427 108.687C135.093 107.832 136.498 106.58 137.484 105.045C138.471 103.508 138.999 101.747 139 99.9441V40.0484C138.999 38.4375 138.576 36.8599 137.78 35.4457V35.4345L137.635 35.1967C137.616 35.166 137.597 35.1346 137.578 35.104L137.562 35.0744C137.556 35.0638 137.549 35.0514 137.541 35.0375C137.533 35.0231 137.523 35.0071 137.512 34.9901C137.493 34.9601 137.476 34.9352 137.464 34.9177C136.48 33.3955 135.082 32.1539 133.426 31.3052L74.7593 1.24952L74.7552 1.24745C73.1414 0.426877 71.3327 0 69.4997 0ZM122.095 37.2305L69.5 10.2858L49.0355 20.7694L102.248 47.4999L122.095 37.2305ZM90.797 53.4251L37.5267 26.6662L16.992 37.1858L70.1066 64.1308L90.797 53.4251ZM128 45.9332V99.7361L75.0845 126.846L75.6039 73.0446L96.6813 62.1378V84.8788C96.6813 86.2905 97.2983 87.6125 98.3429 88.5639C99.3828 89.511 100.766 90.0219 102.181 90.0219C103.597 90.0219 104.98 89.511 106.02 88.5639C107.064 87.6125 107.681 86.2905 107.681 84.8788V56.4463L128 45.9332ZM11 99.7361V45.8504L64.6031 73.0432L64.0828 126.932L11 99.7361Z" fill="url(#paint0_linear)"/>
<defs>
<linearGradient id="paint0_linear" x1="1.61499e-06" y1="12.1566" x2="136.144" y2="122.185" gradientUnits="userSpaceOnUse">
<stop offset="0" stop-color="#2A3993">
<animate attributeName="offset" values="0;0.2;0.5;0.2;0" dur="13s" repeatCount="indefinite" />

</stop>
<stop offset="1" stop-color="#727EC9">
<animate attributeName="offset" values="0.5;0.7;0.8;1;0.7;0.5" dur="10.5s" repeatCount="indefinite" />
</stop>
</linearGradient>
</defs>
</svg>
