<svg width="97" height="97" viewBox="0 0 97 97" fill="none" xmlns="http://www.w3.org/2000/svg">
<path d="M36.375 0C28.6554 0 22.403 5.60579 20.8388 12.8848C11.4137 14.5662 4.04167 22.4312 4.04167 32.3333C4.04167 33.3276 4.15079 34.2127 4.29629 35.114C1.68942 38.9455 0 43.46 0 48.5C0 55.7629 3.61729 61.8739 8.71383 66.3076C8.35008 67.7464 8.08333 69.1812 8.08333 70.7292C8.08333 80.7242 16.2758 88.9167 26.2708 88.9167H26.5255C28.8777 93.4797 32.9517 97 38.3958 97C40.2817 96.9957 42.1476 96.6133 43.8831 95.8753C45.6186 95.1374 47.1885 94.0589 48.5 92.7037C49.8115 94.0589 51.3814 95.1374 53.1169 95.8753C54.8524 96.6133 56.7183 96.9957 58.6042 97C64.0523 97 68.1223 93.4797 70.4786 88.9167H70.7292C80.219 88.9167 87.9992 81.5285 88.7914 72.2448H88.9167C88.9167 71.9902 88.8075 71.7396 88.7914 71.485C88.8075 71.2344 88.9167 70.9797 88.9167 70.7292C88.9167 69.2297 88.3791 67.9485 88.0315 66.5622C93.2736 62.1083 97 55.8922 97 48.5C97 43.4641 95.3106 38.9495 92.7037 35.11C92.8492 34.2127 92.9583 33.3316 92.9583 32.3333C92.9583 22.4312 85.5863 14.5702 76.1612 12.8808C74.597 5.60983 68.3446 0 60.625 0C55.775 0 51.4666 2.25929 48.5 5.68258C45.5334 2.26333 41.225 0 36.375 0ZM36.375 8.08333C40.8895 8.08333 44.4583 11.6521 44.4583 16.1667V24.25C44.4583 29.5981 41.0703 34.0915 36.304 35.7206C34.1918 36.4425 32.3333 38.1845 32.3333 40.4167C32.3333 42.6488 34.162 44.502 36.3468 44.0444C39.3451 43.4164 42.0862 42.1015 44.4583 40.2914V82.8542C44.4583 86.2492 41.7908 88.9167 38.3958 88.9167C36.9818 88.9364 35.607 88.4512 34.5187 87.5481C33.4304 86.645 32.7 85.3833 32.4586 83.9899L31.7028 80.0775L27.7865 80.708C26.3474 80.9353 24.8762 80.8471 23.4746 80.4495C22.0731 80.0518 20.7747 79.3543 19.6694 78.4051C18.5642 77.4559 17.6785 76.2778 17.0737 74.9525C16.4688 73.6271 16.1594 72.186 16.1667 70.7292C16.1667 69.4803 16.3687 68.3122 16.7972 67.1927C16.8295 67.0997 16.8942 67.031 16.9225 66.9381C17.6637 65.0993 18.9156 63.552 20.5107 62.4543C22.3676 61.1764 23.8798 59.081 23.4244 56.8735C22.973 54.6855 20.8113 53.2295 18.7708 54.139C16.2026 55.2837 13.9205 57.0225 12.125 59.2347C9.49714 56.2791 8.05728 52.4548 8.08333 48.5C8.07643 44.8655 9.32576 41.3402 11.6198 38.5211L12.8848 37.0055L12.5049 34.9847C12.2759 34.1186 12.1484 33.2289 12.125 32.3333C12.125 25.5918 17.5085 20.2083 24.25 20.2083H28.2917V16.1667C28.2917 11.6521 31.8605 8.08333 36.375 8.08333ZM60.625 8.08333C65.1395 8.08333 68.7083 11.6521 68.7083 16.1667V20.2083H72.75C79.4915 20.2083 84.875 25.5918 84.875 32.3333C84.875 33.2023 84.7133 34.0389 84.4951 34.9847L84.1192 37.0055L85.3802 38.5211C87.6742 41.3402 88.9236 44.8655 88.9167 48.5C88.9167 53.35 86.8473 57.6746 83.4847 60.625C80.7242 58.1798 77.2039 56.5833 73.2552 56.5833C70.8667 56.5833 68.6253 57.1144 66.6168 58.0757C64.6233 59.0299 64.4212 61.6131 65.8395 63.3081C67.2793 65.0287 69.8974 65.0919 72.1149 64.7512C72.4902 64.6936 72.8713 64.665 73.2552 64.6667C77.1554 64.6667 80.2635 67.5888 80.708 71.3597C80.3766 76.6825 76.1288 80.8333 70.7292 80.8333C70.3654 80.8333 69.9208 80.8172 69.2135 80.708L65.2972 80.0735L64.5414 83.9939C64.2992 85.3866 63.5683 86.6474 62.4801 87.5496C61.3919 88.4519 60.0176 88.9366 58.6042 88.9167C55.2092 88.9167 52.5417 86.2492 52.5417 82.8542V40.2914C54.9386 42.1501 57.7142 43.4241 60.6489 44.0378C62.8349 44.495 64.6667 42.645 64.6667 40.4118C64.6667 38.1823 62.8106 36.4423 60.7007 35.7222C55.9319 34.0945 52.5417 29.5998 52.5417 24.25V16.1667C52.5417 11.6521 56.1105 8.08333 60.625 8.08333Z" fill="url(#paint0_linear)"/>
<defs>
<linearGradient id="paint0_linear" x1="1.12701e-06" y1="8.42282" x2="94.4682" y2="85.3187" gradientUnits="userSpaceOnUse">
<stop offset="0" stop-color="#2A3993">
<animate attributeName="offset" values="0;0.2;0.5;0.2;0" dur="13s" repeatCount="indefinite" />

</stop>
<stop offset="1" stop-color="#727EC9">
<animate attributeName="offset" values="0.5;0.7;0.8;1;0.7;0.5" dur="10.5s" repeatCount="indefinite" />
</stop>
</linearGradient>
</defs>
</svg>
