<svg width="152" height="134" viewBox="0 0 152 134" xmlns="http://www.w3.org/2000/svg">

<path d="M68.9839 1.68368C73.3133 -0.561225 78.4639 -0.561228 82.7934 1.68368L143.682 33.2555C148.655 35.8343 151.777 40.9696 151.777 46.5718V77.3877C151.777 80.3815 149.35 82.8084 146.357 82.8084C143.363 82.8084 140.936 80.3815 140.936 77.3877V52.872L83.1731 84.9614C78.6429 87.4781 73.1344 87.4781 68.6042 84.9614L4.03983 49.0933C1.54642 47.7081 0 45.08 0 42.2276C0 39.2943 1.6346 36.6055 4.23866 35.2552L68.9839 1.68368ZM119.254 52.5156L130.095 46.4929L137.609 42.3184L75.8886 10.3154L14.1685 42.3184L21.6825 46.4929L32.5237 52.5156L75.8886 76.6085L119.254 52.5156ZM75.8886 122.665L113.833 101.321V81.9605C113.833 79.9919 114.9 78.1781 116.621 77.2221C120.234 75.2148 124.674 77.8274 124.674 81.9605V101.813C124.674 105.426 122.726 108.758 119.577 110.529L80.7912 132.346C77.7471 134.058 74.0302 134.058 70.986 132.346L32.2005 110.529C29.0517 108.758 27.1031 105.426 27.1031 101.813V81.9605C27.1031 77.8274 31.5432 75.2148 35.1562 77.2221C36.8771 78.1781 37.9443 79.9919 37.9443 81.9605V101.321L75.8886 122.665Z" fill="url(#paint0_linear)"/>
<defs>
<linearGradient id="paint0_linear" x1="-295%" y1="0" x2="170%" y2="0" >
<stop offset="0" stop-color="#2A3993">
<animate attributeName="offset" values="0;0.2;0.5;0.2;0" dur="13s" repeatCount="indefinite" />

</stop>
<stop offset="0.5" stop-color="#727EC9">
<animate attributeName="offset" values="0.5;0.7;0.8;1;0.7;0.5" dur="10.5s" repeatCount="indefinite" />
</stop>
</linearGradient>
</defs>
</svg>
