<svg width="92" height="92" viewBox="0 0 92 92" fill="none" xmlns="http://www.w3.org/2000/svg">

<path d="M26.312 66.5267L34.4125 64.19L83.1863 14.8349C83.571 14.4407 83.7852 13.911 83.7826 13.3602C83.78 12.8094 83.5609 12.2817 83.1725 11.8911L80.2515 8.93806C80.0627 8.74412 79.8372 8.58972 79.5881 8.48387C79.3391 8.37802 79.0714 8.32284 78.8008 8.32156C78.5301 8.32028 78.262 8.37291 78.0119 8.47639C77.7618 8.57987 77.5349 8.73212 77.3443 8.92426L28.6994 58.1506L26.3074 66.5221L26.312 66.5267ZM86.0337 3.0872L88.9547 6.04483C92.9843 10.1248 93.0211 16.707 89.0283 20.7456L38.7687 71.6094L21.4544 76.5955C20.3973 76.8914 19.266 76.7558 18.3087 76.2186C17.3515 75.6813 16.6464 74.7863 16.3484 73.7299C16.1266 72.9703 16.1234 72.1637 16.3392 71.4024L21.3762 53.7394L71.5023 3.00901C72.4554 2.04931 73.5901 1.28899 74.8402 0.772401C76.0903 0.255808 77.4308 -0.00671979 78.7834 0.000130691C80.136 0.00698118 81.4737 0.283072 82.7185 0.8123C83.9633 1.34153 85.0903 2.1133 86.0337 3.08261V3.0872ZM33.0463 8.39069C35.3279 8.39069 37.1771 10.2628 37.1771 12.5718C37.1808 13.1177 37.0768 13.6589 36.8711 14.1645C36.6654 14.6701 36.3621 15.1303 35.9784 15.5186C35.5948 15.9069 35.1384 16.2158 34.6353 16.4276C34.1322 16.6394 33.5922 16.75 33.0463 16.753H16.5232C11.96 16.753 8.26159 20.4972 8.26159 25.1107V75.2754C8.26159 79.8935 11.96 83.6377 16.5232 83.6377H66.0927C70.6559 83.6377 74.3589 79.8935 74.3589 75.2754V58.5554C74.3589 56.2463 76.2081 54.3742 78.4897 54.3742C80.7713 54.3742 82.6205 56.2463 82.6205 58.56V75.2754C82.6205 84.5116 75.2191 92 66.0927 92H16.5232C7.39679 92 0 84.5116 0 75.2754V25.1107C0 15.8791 7.39679 8.39069 16.5232 8.39069H33.0463Z" fill="url(#paint0_linear)"/>
<defs>
<linearGradient id="paint0_linear" x1="-295%" y1="0" x2="170%" y2="0" >
<stop offset="0" stop-color="#2A3993">
<animate attributeName="offset" values="0;0.2;0.5;0.2;0" dur="13s" repeatCount="indefinite" />

</stop>
<stop offset="1" stop-color="#727EC9">
<animate attributeName="offset" values="0.5;0.7;0.8;1;0.7;0.5" dur="10.5s" repeatCount="indefinite" />
</stop>
</linearGradient>
</defs>
</svg>
