<svg width="120" height="90" viewBox="0 0 120 90" fill="none" xmlns="http://www.w3.org/2000/svg">

<path d="M112.5 90C112.5 90 120 90 120 82.5C120 75 112.5 52.5 82.5 52.5C52.5 52.5 45 75 45 82.5C45 90 52.5 90 52.5 90H112.5ZM52.665 82.5C52.6096 82.4924 52.5545 82.4824 52.5 82.47C52.5075 80.49 53.7525 74.745 58.2 69.57C62.34 64.7175 69.615 60 82.5 60C95.3775 60 102.652 64.725 106.8 69.57C111.247 74.745 112.485 80.4975 112.5 82.47L112.44 82.485C112.405 82.4909 112.37 82.4959 112.335 82.5H52.665ZM82.5 37.5C86.4782 37.5 90.2936 35.9196 93.1066 33.1066C95.9196 30.2936 97.5 26.4782 97.5 22.5C97.5 18.5218 95.9196 14.7064 93.1066 11.8934C90.2936 9.08035 86.4782 7.5 82.5 7.5C78.5218 7.5 74.7064 9.08035 71.8934 11.8934C69.0804 14.7064 67.5 18.5218 67.5 22.5C67.5 26.4782 69.0804 30.2936 71.8934 33.1066C74.7064 35.9196 78.5218 37.5 82.5 37.5ZM105 22.5C105 25.4547 104.418 28.3806 103.287 31.1104C102.157 33.8402 100.499 36.3206 98.4099 38.4099C96.3206 40.4992 93.8402 42.1566 91.1104 43.2873C88.3806 44.418 85.4547 45 82.5 45C79.5453 45 76.6194 44.418 73.8896 43.2873C71.1598 42.1566 68.6794 40.4992 66.5901 38.4099C64.5008 36.3206 62.8434 33.8402 61.7127 31.1104C60.582 28.3806 60 25.4547 60 22.5C60 16.5326 62.3705 10.8097 66.5901 6.5901C70.8097 2.37053 76.5326 0 82.5 0C88.4674 0 94.1903 2.37053 98.4099 6.5901C102.629 10.8097 105 16.5326 105 22.5ZM52.02 54.6C49.0199 53.6553 45.9273 53.0343 42.795 52.7475C41.035 52.5801 39.2679 52.4975 37.5 52.5C7.5 52.5 0 75 0 82.5C0 87.5025 2.4975 90 7.5 90H39.12C38.0082 87.6586 37.4537 85.0915 37.5 82.5C37.5 74.925 40.3275 67.185 45.675 60.72C47.4975 58.515 49.62 56.4525 52.02 54.6ZM36.9 60C32.4612 66.6695 30.0633 74.4886 30 82.5H7.5C7.5 80.55 8.73 74.775 13.2 69.57C17.2875 64.8 24.39 60.15 36.9 60.0075V60ZM11.25 26.25C11.25 20.2826 13.6205 14.5597 17.8401 10.3401C22.0597 6.12053 27.7826 3.75 33.75 3.75C39.7174 3.75 45.4403 6.12053 49.6599 10.3401C53.8795 14.5597 56.25 20.2826 56.25 26.25C56.25 32.2174 53.8795 37.9403 49.6599 42.1599C45.4403 46.3795 39.7174 48.75 33.75 48.75C27.7826 48.75 22.0597 46.3795 17.8401 42.1599C13.6205 37.9403 11.25 32.2174 11.25 26.25ZM33.75 11.25C29.7718 11.25 25.9564 12.8304 23.1434 15.6434C20.3304 18.4564 18.75 22.2718 18.75 26.25C18.75 30.2282 20.3304 34.0436 23.1434 36.8566C25.9564 39.6696 29.7718 41.25 33.75 41.25C37.7282 41.25 41.5436 39.6696 44.3566 36.8566C47.1696 34.0436 48.75 30.2282 48.75 26.25C48.75 22.2718 47.1696 18.4564 44.3566 15.6434C41.5436 12.8304 37.7282 11.25 33.75 11.25Z" fill="url(#paint0_linear)"/>
<defs>
<linearGradient id="paint0_linear" x1="-295%" y1="0" x2="170%" y2="0" >
<stop offset="0" stop-color="#2A3993">
<animate attributeName="offset" values="0;0.2;0.5;0.2;0" dur="13s" repeatCount="indefinite" />

</stop>
<stop offset="1" stop-color="#727EC9">
<animate attributeName="offset" values="0.5;0.7;0.8;1;0.7;0.5" dur="10.5s" repeatCount="indefinite" />
</stop>
</linearGradient>
</defs>
</svg>
