<svg width="35" height="21" viewBox="0 0 35 21" fill="none" xmlns="http://www.w3.org/2000/svg">
<path fill-rule="evenodd" clip-rule="evenodd" d="M17.1769 19.9474H19.299C19.299 19.9474 19.9356 19.8413 20.2539 19.5229C20.5722 19.2046 20.5722 18.568 20.5722 18.568C20.5722 18.568 20.5722 15.8093 21.8454 15.3849C23.1187 14.9605 24.8163 18.1436 26.514 19.3107C27.7872 20.2657 28.7421 20.0535 28.7421 20.0535L33.4106 19.9474C33.4106 19.9474 35.851 19.8413 34.6839 17.8253C34.5778 17.7192 34.0473 16.446 31.1825 13.7934C28.2116 11.0347 28.636 11.5652 32.1374 6.79059C34.2595 3.92581 35.1083 2.22816 34.8961 1.37934C34.6839 0.636617 33.0923 0.848823 33.0923 0.848823H27.7872C27.7872 0.848823 27.3628 0.74272 27.1506 0.954926C26.8323 1.16713 26.7262 1.48544 26.7262 1.48544C26.7262 1.48544 25.8773 3.7136 24.8163 5.62346C22.482 9.54927 21.5271 9.76147 21.2088 9.54927C20.36 9.01875 20.5722 7.215 20.5722 6.04787C20.5722 2.22816 21.2088 0.636617 19.4051 0.212205C18.8745 0.106102 18.4501 0 16.9647 0C15.0548 0 13.4633 -4.11075e-07 12.6145 0.424411C11.9778 0.74272 11.5534 1.37934 11.8717 1.37934C12.1901 1.37934 13.0389 1.59154 13.4633 2.12206C13.8877 3.07699 13.8877 4.66853 13.8877 4.66853C13.8877 4.66853 14.206 9.23096 13.145 9.76147C12.4023 10.1859 11.4473 9.33706 9.32527 5.72956C8.26424 3.92581 7.41542 1.80375 7.41542 1.80375C7.41542 1.80375 7.30932 1.37934 6.99101 1.16713C6.6727 0.954927 6.14218 0.848823 6.14218 0.848823H1.15534C1.15534 0.848823 0.412623 0.848824 0.0943137 1.16713C-0.117892 1.48544 0.0943137 2.01596 0.0943137 2.01596C0.0943137 2.01596 4.02012 11.1408 8.47645 15.8093C12.6145 20.2657 17.1769 19.9474 17.1769 19.9474Z" fill="white"/>
</svg>
