<svg width="138" height="44" viewBox="0 0 138 43" fill="none" xmlns="http://www.w3.org/2000/svg">
<path d="M3.00816 42.1634C2.21035 42.1634 1.44521 41.8479 0.88107 41.2863C0.31693 40.7248 0 39.9631 0 39.1689L0 4.4507C-4.31199e-07 3.65623 0.31683 2.89426 0.88088 2.33219C1.44493 1.77013 2.21006 1.45395 3.00816 1.45312C3.80626 1.45395 4.57139 1.77013 5.13544 2.33219C5.69949 2.89426 6.01632 3.65623 6.01632 4.4507V17.4506H30.0284V4.4507C30.0284 3.65623 30.3452 2.89426 30.9093 2.33219C31.4733 1.77013 32.2385 1.45395 33.0366 1.45312C33.8352 1.45313 34.6011 1.76894 35.1659 2.33109C35.7306 2.89325 36.0479 3.65569 36.0479 4.4507V39.1689C36.047 39.9634 35.7294 40.725 35.1648 41.2865C34.6001 41.848 33.8347 42.1634 33.0366 42.1634C32.2387 42.1634 31.4736 41.8479 30.9095 41.2863C30.3453 40.7248 30.0284 39.9631 30.0284 39.1689V23.4364H6.01632V39.1689C6.01632 39.9631 5.69939 40.7248 5.13525 41.2863C4.57111 41.8479 3.80597 42.1634 3.00816 42.1634Z" fill="white"/>
<path d="M79.1622 34.8672C77.0731 37.6183 74.3567 39.8353 71.237 41.3352C68.1174 42.835 64.6841 43.5747 61.2207 43.4931C57.7572 43.4115 54.363 42.511 51.3181 40.866C48.2732 39.2209 45.6651 36.8785 43.7091 34.0321C43.3888 33.572 43.2011 33.0335 43.1661 32.4748C43.1312 31.9161 43.2504 31.3585 43.5109 30.8624C43.7713 30.3663 44.1631 29.9506 44.6439 29.6602C45.1246 29.3698 45.676 29.2158 46.2383 29.2148C46.7445 29.2179 47.2422 29.3438 47.6884 29.5816C48.1346 29.8194 48.5158 30.162 48.7989 30.5796C49.3492 31.3733 49.9705 32.1159 50.6551 32.7982C52.1097 34.2547 53.8391 35.4106 55.7441 36.1994C57.649 36.9881 59.6918 37.3942 61.7549 37.3942C63.8181 37.3942 65.8609 36.9881 67.7658 36.1994C69.6708 35.4106 71.4002 34.2547 72.8548 32.7982C73.3556 32.2654 73.8377 31.717 74.279 31.1467C74.5811 30.7486 74.9786 30.4322 75.4352 30.2265C75.8918 30.0207 76.3929 29.9322 76.8928 29.9689H76.9491C77.4989 30.0123 78.0269 30.202 78.4778 30.5181C78.9287 30.8343 79.286 31.2653 79.5122 31.766C79.7384 32.2667 79.8253 32.8187 79.7637 33.3643C79.7022 33.9099 79.4944 34.429 79.1622 34.8672Z" fill="white"/>
<path d="M56.5408 0.5954C49.4101 2.21883 42.1417 9.46659 40.4983 16.5648C40.1309 18.1548 39.9326 19.7788 39.9067 21.4101C39.9008 21.7118 39.9555 22.0117 40.0673 22.2921C40.1792 22.5725 40.3461 22.828 40.5582 23.0435C40.7704 23.2591 41.0236 23.4304 41.3029 23.5474C41.5823 23.6645 41.8824 23.7249 42.1855 23.7253L51.3633 23.7845H81.5545C82.0964 23.7829 82.6157 23.5681 82.9992 23.1869C83.3826 22.8058 83.5992 22.2892 83.6017 21.7498C83.6017 8.02078 70.9148 -2.68261 56.5408 0.5954ZM46.5616 17.7956C47.2788 15.1152 48.6895 12.6689 50.6528 10.7005C52.1073 9.244 53.8368 8.08812 55.7417 7.29937C57.6467 6.51062 59.6895 6.10457 61.7526 6.10457C63.8158 6.10457 65.8586 6.51062 67.7635 7.29937C69.6684 8.08812 71.3979 9.244 72.8525 10.7005C74.8137 12.67 76.2231 15.116 76.9405 17.7956H46.5616Z" fill="white"/>
<path d="M107.682 39.3154C107.681 40.071 107.379 40.7954 106.842 41.3294C106.305 41.8634 105.577 42.1634 104.818 42.1634H90.4657C89.7185 42.1634 89.0019 41.8679 88.4736 41.342C87.9453 40.8161 87.6484 40.1028 87.6484 39.359V4.50678C87.6484 3.6969 87.9716 2.92019 88.5469 2.34752C89.1222 1.77485 89.9025 1.45313 90.7161 1.45312C91.5297 1.45312 92.3099 1.77485 92.8852 2.34752C93.4605 2.92019 93.7837 3.6969 93.7837 4.50678V36.458H104.824C105.2 36.4588 105.572 36.5334 105.92 36.6774C106.267 36.8215 106.582 37.0322 106.848 37.2975C107.113 37.5628 107.323 37.8776 107.466 38.2238C107.61 38.5701 107.683 38.941 107.682 39.3154Z" fill="white"/>
<path d="M133.618 5.81378C135.016 7.18928 136.123 8.82892 136.876 10.6365C137.629 12.444 138.011 14.383 138 16.3396C137.988 20.2691 136.412 24.0338 133.618 26.8092C130.869 29.6572 127.073 31.1124 123.041 31.1124H117.901V39.1953C117.901 39.9509 117.6 40.6756 117.063 41.2102C116.527 41.7448 115.799 42.0455 115.04 42.0464H114.63C113.87 42.0464 113.142 41.746 112.605 41.2113C112.067 40.6766 111.766 39.9514 111.766 39.1953V4.15608C111.766 3.43876 112.052 2.75081 112.561 2.24359C113.071 1.73637 113.762 1.45141 114.483 1.45141H123.041C125.007 1.44026 126.955 1.82043 128.772 2.56958C130.588 3.31872 132.236 4.42173 133.618 5.81378ZM131.796 14.8501C131.076 10.5625 127.223 7.49018 122.853 7.49018H117.901V25.0051H123.041C128.378 25.0051 132.723 20.3592 131.784 14.8595L131.796 14.8501Z" fill="white"/>
</svg>
